<svg xmlns="http://www.w3.org/2000/svg" viewBox="0 0 64 64" fill="none">
  <path d="M44.159 40.197l2.632-9.128c.094-.328.145-.67.145-1.018 0-2.66-2.468-4.46-5.129-4.46l-24.91.033c-.197 0-.362-.098-.428-.262a.474.474 0 0 1 .098-.493c.098-.132.263-.197.428-.197l25.107-.033c3.584-.197 6.742-2.956 7.73-6.474.527-1.874.428-3.616-.131-5.064a3.078 3.078 0 0 0-.363-.659C46.592 6.15 40.704 1.49 33.8 1.49c-5.92 0-11.115 3.254-13.847 8.075a8.592 8.592 0 0 0-5.888-1.216c-3.847.593-6.94 3.72-7.532 7.567a9.044 9.044 0 0 0 .066 3.485C2.881 19.697 0 22.884 0 26.765c0 .395.033.79.066 1.182a.417.417 0 0 0 .428.395h41.372c.197 0 .362.098.428.263.066.131.033.296-.066.427-.098.132-.263.197-.428.197H1.415c-.23 0-.428.165-.46.395-.099.79-.132 1.579-.099 2.369.23 6.277 5.395 11.338 11.675 11.404h29.665c.263 0 .494-.165.593-.395l1.37-3.156z" fill="#F6821F"/>
  <path d="M50.046 12.818a.835.835 0 0 0-.724-.066.804.804 0 0 0-.46.527l-1.976 6.867c-.098.329-.145.67-.145 1.019 0 2.66 2.468 4.46 5.13 4.46h8.6c.197 0 .362-.099.428-.263a.474.474 0 0 0-.099-.494.537.537 0 0 0-.428-.197h-8.731c-1.481 0-2.896-1.216-2.896-2.825a2.8 2.8 0 0 1 .065-.625l2.173-7.534a.826.826 0 0 0-.296-.823l-.64-.046z" fill="#FBAD41"/>
</svg>
